<svg xmlns="http://www.w3.org/2000/svg" xmlns:xlink="http://www.w3.org/1999/xlink" viewBox="0 0 286 124" width="286" height="124">

    <path d="M62 2c17.05-.24 30.38 3.1 40 10 13.51 10.09 20.18 26.76 20 50-.27 34.87-19.2 49.2-20 50-5.96 5.96-19.29 9.29-40 10H22c-13.41-.71-20.07-7.37-20-20 .06-10.27 6.73-15.46 20-15.58h40C75.63 83.47 82.3 75.33 82 62c-.29-13.33-6.96-21.18-20-23.54H22C8.61 40.35 1.94 34.86 2 22 2.06 9.14 8.73 2.47 22 2c9.62.24 22.95.24 40 0z" fill="#fe049a"/>
    <path d="M213.11 13.62c7.53 4.89 9.67 14.96 4.79 22.49-12.04 18.55-38.21 58.88-49.98 77.01-5.64 8.69-17.25 11.16-25.95 5.52-3.38-2.19 1.36.89-2.23-1.45-8.12-5.26-10.43-16.1-5.16-24.22 11.9-18.34 37.52-57.83 49.29-75.96 5.64-8.69 17.26-11.16 25.95-5.52 3.38 2.19-.52-.34 3.29 2.13z" fill="#fe049a"/>
    <path d="M277.42 7.68c7.53 4.89 9.67 14.96 4.79 22.49-12.85 19.8-41.46 63.9-54.04 83.28-5.64 8.69-17.26 11.16-25.95 5.52-3.39-2.19 1.36.89-2.24-1.45-8.11-5.26-10.42-16.1-5.16-24.22 12.72-19.59 40.78-62.84 53.36-82.22 5.64-8.7 17.26-11.17 25.95-5.53 3.39 2.2-.52-.34 3.29 2.13z" fill="#fe049a"/>
    <path d="M162 22c0 11.04-8.96 20-20 20s-20-8.96-20-20 8.96-20 20-20 20 8.96 20 20z" fill="#fe049a"/>
    <path d="M48.11 62c0 11.04-8.97 20-20 20-11.04 0-20-8.96-20-20s8.96-20 20-20c11.03 0 20 8.96 20 20z" fill="#fe049a"/>
  
</svg>
