<svg xmlns="http://www.w3.org/2000/svg" xmlns:xlink="http://www.w3.org/1999/xlink" viewBox="0 0 96 42.9" width="96" height="42.9">
  <path d="M21.45.99C27.27.91 31.81 2.05 35.09 4.4c4.61 3.44 6.88 9.12 6.82 17.05-.09 11.88-6.55 16.77-6.82 17.04-2.03 2.03-6.58 3.17-13.64 3.41H7.82C3.25 41.66.98 39.39 1 35.08c.02-3.5 2.29-5.27 6.82-5.31h13.63c4.65-1 6.92-3.78 6.82-8.32-.1-4.55-2.37-7.22-6.82-8.03H7.82C3.25 14.07.98 12.19 1 7.81 1.02 3.43 3.29 1.15 7.82.99c3.28.08 7.82.08 13.63 0z" fill="#fe049a"/>
  <path d="M16.72 21.45c0 3.76-3.06 6.81-6.82 6.81-3.76 0-6.82-3.05-6.82-6.81 0-3.77 3.06-6.82 6.82-6.82 3.76 0 6.82 3.05 6.82 6.82z" fill="#fe049a"/>
  <path d="M73.2 2.31c2.77 1.31 3.96 4.61 2.65 7.38-3.28 6.99-10.49 22.32-13.7 29.16-1.51 3.2-5.31 4.57-8.51 3.07-1.25-.59.5.23-.82-.39-2.99-1.4-4.27-4.96-2.87-7.94 3.25-6.91 10.31-21.94 13.53-28.78 1.5-3.19 5.31-4.57 8.51-3.07 1.24.59-.19-.08 1.21.57z" fill="#fe049a"/>
  <path d="M91.12 2.02c2.77 1.3 3.96 4.6 2.66 7.37-3.26 6.93-10.37 22.08-13.56 28.85-1.5 3.19-5.31 4.57-8.5 3.06-1.25-.58.49.24-.83-.38-2.98-1.4-4.26-4.96-2.86-7.94 3.22-6.85 10.19-21.69 13.37-28.46 1.51-3.2 5.32-4.57 8.51-3.07 1.25.59-.19-.09 1.21.57z" fill="#fe049a"/>
  <path d="M57.6 11.5c-1.75 3.92-3.85 6.81-9.13 4.45-5.28-2.36-4.53-5.85-2.78-9.77 1.75-3.93 3.54-6.95 9.13-4.46 5.59 2.5 4.53 5.85 2.78 9.78z" fill="#fe049a"/>
</svg>
