<?xml version="1.0" standalone="no"?>
<!DOCTYPE svg PUBLIC "-//W3C//DTD SVG 20010904//EN"
 "http://www.w3.org/TR/2001/REC-SVG-20010904/DTD/svg10.dtd">
<svg version="1.0" xmlns="http://www.w3.org/2000/svg"
 width="512.000000pt" height="512.000000pt" viewBox="0 0 512.000000 512.000000"
 preserveAspectRatio="xMidYMid meet">
<metadata>
Created by potrace 1.11, written by Peter Selinger 2001-2013
</metadata>
<g transform="translate(0.000000,512.000000) scale(0.100000,-0.100000)"
fill="#000000" stroke="none">
<path d="M0 2560 l0 -2560 2560 0 2560 0 0 2560 0 2560 -2560 0 -2560 0 0
-2560z m1598 1130 c208 -24 328 -76 448 -195 64 -63 90 -98 123 -165 72 -149
84 -213 85 -455 0 -187 -2 -219 -22 -291 -73 -269 -213 -451 -397 -514 -131
-45 -247 -55 -655 -55 -411 0 -425 1 -502 51 -74 48 -112 158 -94 278 9 58 53
111 116 140 42 20 67 21 400 26 l355 5 55 26 c74 35 125 81 158 143 25 47 27
61 27 166 0 105 -2 119 -27 166 -33 62 -84 108 -158 143 l-55 26 -370 1 c-407
1 -405 0 -459 64 -36 43 -49 101 -44 195 8 139 68 214 195 244 52 12 718 13
821 1z m1026 -4 c145 -44 229 -189 192 -332 -35 -134 -133 -213 -267 -214
-100 0 -185 45 -237 127 -96 151 -26 357 140 414 64 22 110 24 172 5z m1760
-26 c77 -37 141 -105 160 -170 27 -91 15 -125 -109 -315 -47 -71 -117 -179
-156 -240 -38 -60 -100 -156 -137 -213 -37 -56 -139 -213 -227 -349 -88 -136
-176 -264 -196 -284 -50 -50 -138 -83 -203 -75 -93 11 -203 82 -242 158 -21
41 -29 124 -15 174 7 25 174 292 414 660 l402 619 65 33 c58 30 72 33 130 30
42 -2 82 -12 114 -28z m-891 -93 c110 -58 167 -153 153 -255 -7 -50 -24 -82
-162 -292 -44 -69 -190 -294 -324 -500 -134 -206 -255 -390 -268 -408 -14 -18
-46 -45 -71 -60 -40 -24 -57 -27 -131 -27 -69 0 -93 4 -128 23 -144 77 -197
224 -128 354 13 24 181 287 375 585 377 579 379 582 479 609 64 18 135 8 205
-29z m-2431 -459 c56 -24 112 -82 140 -146 31 -68 22 -184 -18 -249 -100 -162
-321 -183 -448 -42 -96 107 -93 280 7 376 94 91 201 112 319 61z m2808 -1318
c64 -33 100 -102 100 -192 0 -87 -41 -155 -115 -189 -38 -17 -78 -19 -665 -18
-702 0 -684 -2 -744 72 -29 36 -31 46 -34 128 -4 81 -2 93 22 133 17 29 40 51
68 65 42 21 51 21 686 21 621 0 644 -1 682 -20z"/>
</g>
</svg>
