<?xml version="1.0" encoding="UTF-8" standalone="no"?>
<!DOCTYPE svg PUBLIC "-//W3C//DTD SVG 1.1//EN" "http://www.w3.org/Graphics/SVG/1.1/DTD/svg11.dtd">
<svg version="1.1" xmlns="http://www.w3.org/2000/svg" xmlns:xlink="http://www.w3.org/1999/xlink" preserveAspectRatio="xMidYMid meet" viewBox="0 0 286 124" width="286" height="124"><defs><path d="" id="a2RPtYOAba"></path><path d="M62 2C79.05 1.76 92.38 5.1 102 12C115.51 22.09 122.18 38.76 122 62C121.73 96.87 102.8 111.2 102 112C96.04 117.96 82.71 121.29 62 122L22 122C8.59 121.29 1.93 114.63 2 102C2.06 91.73 8.73 86.54 22 86.42L62 86.42C75.63 83.47 82.3 75.33 82 62C81.71 48.67 75.04 40.82 62 38.46L22 38.46C8.61 40.35 1.94 34.86 2 22C2.06 9.14 8.73 2.47 22 2C31.62 2.24 44.95 2.24 62 2Z" id="bPnBKkod7"></path><path d="M55.93 80C55.93 88.79 48.79 95.93 40 95.93C31.21 95.93 24.07 88.79 24.07 80C24.07 71.21 31.21 64.07 40 64.07C48.79 64.07 55.93 71.21 55.93 80Z" id="a3t0kYOCs"></path><path d="M187.79 26.96C194.02 31.01 195.8 39.34 191.75 45.57C187.09 52.76 180.17 63.42 175.45 70.7C171.58 76.67 163.6 78.37 157.63 74.5C153.94 72.1 155.36 73.02 152.09 70.9C144.95 66.27 142.92 56.72 147.55 49.58C152 42.73 157.58 34.14 162.18 27.04C166.39 20.55 175.07 18.71 181.56 22.92C185.06 25.19 184.19 24.63 187.79 26.96Z" id="b1XjhNFBtZ"></path><path d="M209.05 19.88C216.58 24.77 218.72 34.84 213.83 42.37C202.61 59.67 178.88 96.24 167.92 113.12C162.28 121.81 150.67 124.28 141.97 118.64C138.59 116.45 143.33 119.53 139.74 117.19C131.62 111.93 129.31 101.09 134.58 92.97C145.67 75.89 168.86 40.15 179.81 23.27C185.45 14.58 197.07 12.11 205.76 17.75C209.14 19.94 205.24 17.41 209.05 19.88Z" id="a9lPbSu4V"></path><path d="M277.42 7.68C284.95 12.57 287.09 22.64 282.21 30.17C269.36 49.97 240.75 94.07 228.17 113.45C222.53 122.14 210.91 124.61 202.22 118.97C198.83 116.78 203.58 119.86 199.98 117.52C191.87 112.26 189.56 101.42 194.82 93.3C207.54 73.71 235.6 30.46 248.18 11.08C253.82 2.38 265.44 -0.09 274.13 5.55C277.52 7.75 273.61 5.21 277.42 7.68Z" id="bWvaJhP8w"></path><path d="M162 22C162 33.04 153.04 42 142 42C130.96 42 122 33.04 122 22C122 10.96 130.96 2 142 2C153.04 2 162 10.96 162 22Z" id="c3cPFlbeJ9"></path><path d="M48.11 62C48.11 73.04 39.14 82 28.11 82C17.07 82 8.11 73.04 8.11 62C8.11 50.96 17.07 42 28.11 42C39.14 42 48.11 50.96 48.11 62Z" id="a3cSP3fg0a"></path></defs><g><g><g><g><use xlink:href="#a2RPtYOAba" opacity="1" fill-opacity="0" stroke="#000000" stroke-width="1" stroke-opacity="1"></use></g></g><g><use xlink:href="#bPnBKkod7" opacity="1" fill="#fe049a" fill-opacity="1"></use></g><g></g><g></g><g><use xlink:href="#a9lPbSu4V" opacity="1" fill="#fe049a" fill-opacity="1"></use></g><g><use xlink:href="#bWvaJhP8w" opacity="1" fill="#fe049a" fill-opacity="1"></use></g><g><use xlink:href="#c3cPFlbeJ9" opacity="1" fill="#fe049a" fill-opacity="1"></use></g><g><use xlink:href="#a3cSP3fg0a" opacity="1" fill="#fe049a" fill-opacity="1"></use></g></g></g></svg>